<?xml version="1.0" standalone="no"?>
<!DOCTYPE svg PUBLIC "-//W3C//DTD SVG 20010904//EN"
 "http://www.w3.org/TR/2001/REC-SVG-20010904/DTD/svg10.dtd">
<svg version="1.0" xmlns="http://www.w3.org/2000/svg"
 width="1000.000000pt" height="1000.000000pt" viewBox="0 0 1000.000000 1000.000000"
 preserveAspectRatio="xMidYMid meet">

<g transform="translate(0.000000,1000.000000) scale(0.100000,-0.100000)"
fill="#000000" stroke="none">
<path d="M5010 7914 c-86 -16 -227 -96 -1165 -658 -1127 -675 -1104 -660
-1170 -798 -19 -40 -39 -98 -45 -129 -7 -37 -10 -479 -8 -1310 l3 -1254 24
-60 c32 -80 83 -156 136 -203 58 -51 2064 -1253 2140 -1282 49 -19 79 -24 165
-24 86 0 116 5 165 24 76 29 2082 1231 2140 1282 53 47 104 123 136 203 l24
60 3 1254 c2 831 -1 1273 -8 1310 -6 31 -26 89 -45 129 -66 138 -43 123 -1170
798 -561 336 -1047 621 -1080 633 -58 22 -190 35 -245 25z m971 -1261 l879
-528 0 -1071 0 -1071 -217 -129 c-119 -71 -222 -130 -228 -132 -6 -1 -22 59
-38 143 -154 797 -576 1461 -1234 1942 -320 233 -727 435 -1150 570 -84 26
-152 51 -150 56 3 10 1230 746 1245 747 8 0 409 -237 893 -527z m-2511 -858
c433 -100 868 -285 1185 -503 568 -391 906 -904 1035 -1567 20 -107 56 -402
49 -409 -20 -19 -645 -386 -654 -384 -6 2 -406 239 -888 528 l-877 525 0 923
0 922 23 -5 c12 -3 69 -16 127 -30z"/>
</g>
</svg>
